<?xml version="1.0" encoding="UTF-8"?>
<svg id="Calque_1" data-name="Calque 1" xmlns="http://www.w3.org/2000/svg" xmlns:xlink="http://www.w3.org/1999/xlink" viewBox="0 0 2000 2000">
  <defs>
    <style>
      .cls-1 {
        fill: url(#Laiton_terne-40);
      }

      .cls-2 {
        fill: url(#Laiton_terne-42);
      }

      .cls-3 {
        fill: url(#Laiton_terne-41);
      }

      .cls-4 {
        fill: url(#Laiton_terne-44);
      }

      .cls-5 {
        fill: url(#Laiton_terne-43);
      }

      .cls-6 {
        fill: url(#Laiton_terne-30);
      }

      .cls-7 {
        fill: url(#Laiton_terne-36);
      }

      .cls-8 {
        fill: url(#Laiton_terne-35);
      }

      .cls-9 {
        fill: url(#Laiton_terne-38);
      }

      .cls-10 {
        fill: url(#Laiton_terne-33);
      }

      .cls-11 {
        fill: url(#Laiton_terne-31);
      }

      .cls-12 {
        fill: url(#Laiton_terne-34);
      }

      .cls-13 {
        fill: url(#Laiton_terne-37);
      }

      .cls-14 {
        fill: url(#Laiton_terne-32);
      }

      .cls-15 {
        fill: url(#Laiton_terne-23);
      }

      .cls-16 {
        fill: url(#Laiton_terne-26);
      }

      .cls-17 {
        fill: url(#Laiton_terne-28);
      }

      .cls-18 {
        fill: url(#Laiton_terne-22);
      }

      .cls-19 {
        fill: url(#Laiton_terne-27);
      }

      .cls-20 {
        fill: url(#Laiton_terne-25);
      }

      .cls-21 {
        fill: url(#Laiton_terne-21);
      }

      .cls-22 {
        fill: url(#Laiton_terne-20);
      }

      .cls-23 {
        fill: url(#Laiton_terne-16);
      }

      .cls-24 {
        fill: url(#Laiton_terne-11);
      }

      .cls-25 {
        fill: url(#Laiton_terne-14);
      }

      .cls-26 {
        fill: url(#Laiton_terne-17);
      }

      .cls-27 {
        fill: url(#Laiton_terne-15);
      }

      .cls-28 {
        fill: url(#Laiton_terne-39);
      }

      .cls-29 {
        fill: url(#Laiton_terne-12);
      }

      .cls-30 {
        fill: url(#Laiton_terne-10);
      }

      .cls-31 {
        fill: url(#Laiton_terne-13);
      }

      .cls-32 {
        fill: url(#Laiton_terne-24);
      }

      .cls-33 {
        fill: url(#Laiton_terne-29);
      }

      .cls-34 {
        fill: url(#Laiton_terne-19);
      }

      .cls-35 {
        fill: url(#Laiton_terne-18);
      }

      .cls-36 {
        fill: url(#Laiton_terne-8);
      }

      .cls-37 {
        fill: url(#Laiton_terne-6);
      }

      .cls-38 {
        fill: url(#Laiton_terne-9);
      }

      .cls-39 {
        fill: url(#Laiton_terne-7);
      }

      .cls-40 {
        fill: url(#Laiton_terne-3);
      }

      .cls-41 {
        fill: url(#Laiton_terne-5);
      }

      .cls-42 {
        fill: url(#Laiton_terne-2);
      }

      .cls-43 {
        fill: url(#Laiton_terne-4);
      }

      .cls-44 {
        fill: url(#Eau_10-2);
      }

      .cls-45 {
        fill: #444a4c;
      }

      .cls-46 {
        /* Medium warm gold for lower circular text and decorative elements */
        fill: #D7B56A;
      }

      .cls-47 {
        /* Light beige/gold for terrace tiles */
        fill: #E8D5B2;
      }

      .cls-48 {
        fill: url(#Eau_10);
      }

      .cls-49 {
        fill: url(#Laiton_terne);
      }

      .cls-50 {
        fill: #fff;
      }

      .cls-51 {
        fill: url(#Dégradé_sans_nom_21);
      }

      .cls-52 {
        /* Medium beige/gold for terrace details */
        fill: #C8A87A;
      }

      .cls-53 {
        /* Deep navy tone for wave accents */
        fill: #00204A;
      }

      .cls-54 {
        fill: url(#Dégradé_sans_nom_21-2);
      }

      .cls-55 {
        fill: url(#Dégradé_sans_nom_21-4);
      }

      .cls-56 {
        fill: url(#Dégradé_sans_nom_21-3);
      }

      .cls-57 {
        fill: url(#Dégradé_sans_nom_21-6);
      }

      .cls-58 {
        fill: url(#Dégradé_sans_nom_21-5);
      }

      .cls-59 {
        fill: url(#Dégradé_sans_nom_21-7);
      }
    </style>
    <linearGradient id="Laiton_terne" data-name="Laiton terne" x1="128.48" y1="1000" x2="1871.52" y2="1000" gradientUnits="userSpaceOnUse">
      <!-- Updated gold gradient for premium metallic ring: light to deep gold with gentle contrast -->
      <stop offset="0" stop-color="#F8E9C8"/>
      <stop offset="0.4" stop-color="#D7B56A"/>
      <stop offset="0.7" stop-color="#B3883E"/>
      <stop offset="1" stop-color="#8B6A27"/>
    </linearGradient>
    <linearGradient id="Laiton_terne-2" data-name="Laiton terne" x1="661.25" y1="845.77" x2="1228.78" y2="845.77" xlink:href="#Laiton_terne"/>
    <linearGradient id="Eau_10" data-name="Eau 10" x1="591.06" y1="1072.6" x2="1558.64" y2="1072.6" gradientUnits="userSpaceOnUse">
      <!-- Updated deep blue gradient with subtle gloss and inner shadow for the wave -->
      <stop offset="0" stop-color="#00204A"/>
      <stop offset="0.1" stop-color="#003566"/>
      <stop offset="0.3" stop-color="#0A4A97"/>
      <stop offset="0.45" stop-color="#6FB4FF"/>
      <!-- Narrow highlight band to create a gentle sheen along the wave -->
      <stop offset="0.48" stop-color="#6FB4FF"/>
      <stop offset="0.5" stop-color="#FFFFFF" stop-opacity="0.12"/>
      <stop offset="0.52" stop-color="#6FB4FF"/>
      <stop offset="0.7" stop-color="#0A4A97"/>
      <stop offset="0.9" stop-color="#003566"/>
      <stop offset="1" stop-color="#00204A"/>
    </linearGradient>
    <linearGradient id="Eau_10-2" data-name="Eau 10" x1="226.01" y1="1316.81" x2="1162.32" y2="1316.81" xlink:href="#Eau_10"/>
    <linearGradient id="Dégradé_sans_nom_21" data-name="Dégradé sans nom 21" x1="1065.34" y1="1375.15" x2="1416.64" y2="1375.15" gradientUnits="userSpaceOnUse">
      <!-- Updated terrace gradient: warm beige and gold tones for depth without harsh contrast -->
      <stop offset="0" stop-color="#E8D5B2"/>
      <stop offset="0.5" stop-color="#C8A87A"/>
      <stop offset="1" stop-color="#A38048"/>
    </linearGradient>
    <linearGradient id="Dégradé_sans_nom_21-2" data-name="Dégradé sans nom 21" x1="719.67" y1="1213.89" x2="950.93" y2="1213.89" xlink:href="#Dégradé_sans_nom_21"/>
    <linearGradient id="Dégradé_sans_nom_21-3" data-name="Dégradé sans nom 21" x1="794.29" y1="1322.63" x2="1198.99" y2="1322.63" xlink:href="#Dégradé_sans_nom_21"/>
    <linearGradient id="Dégradé_sans_nom_21-4" data-name="Dégradé sans nom 21" x1="1118.42" y1="1255.79" x2="1539.6" y2="1255.79" xlink:href="#Dégradé_sans_nom_21"/>
    <linearGradient id="Dégradé_sans_nom_21-5" data-name="Dégradé sans nom 21" x1="861.77" y1="1183.37" x2="1245.36" y2="1183.37" xlink:href="#Dégradé_sans_nom_21"/>
    <linearGradient id="Dégradé_sans_nom_21-6" data-name="Dégradé sans nom 21" x1="710.45" y1="1134.74" x2="1019.26" y2="1134.74" xlink:href="#Dégradé_sans_nom_21"/>
    <linearGradient id="Dégradé_sans_nom_21-7" data-name="Dégradé sans nom 21" x1="701.07" y1="1151.14" x2="775.8" y2="1151.14" xlink:href="#Dégradé_sans_nom_21"/>
    <linearGradient id="Laiton_terne-3" data-name="Laiton terne" x1="782.4" y1="950.7" x2="876.56" y2="1058.47" xlink:href="#Laiton_terne"/>
    <linearGradient id="Laiton_terne-4" data-name="Laiton terne" x1="128.23" y1="1188.18" x2="1737.64" y2="1929.35" xlink:href="#Laiton_terne"/>
    <linearGradient id="Laiton_terne-5" data-name="Laiton terne" x1="114.48" y1="1218.04" x2="1723.89" y2="1959.21" xlink:href="#Laiton_terne"/>
    <linearGradient id="Laiton_terne-6" data-name="Laiton terne" x1="105.35" y1="1237.86" x2="1714.76" y2="1979.04" xlink:href="#Laiton_terne"/>
    <linearGradient id="Laiton_terne-7" data-name="Laiton terne" x1="90.98" y1="1269.06" x2="1700.39" y2="2010.24" xlink:href="#Laiton_terne"/>
    <linearGradient id="Laiton_terne-8" data-name="Laiton terne" x1="84.19" y1="1283.81" x2="1693.6" y2="2024.99" xlink:href="#Laiton_terne"/>
    <linearGradient id="Laiton_terne-9" data-name="Laiton terne" x1="75.25" y1="1303.23" x2="1684.65" y2="2044.4" xlink:href="#Laiton_terne"/>
    <linearGradient id="Laiton_terne-10" data-name="Laiton terne" x1="64.56" y1="1326.43" x2="1673.97" y2="2067.61" xlink:href="#Laiton_terne"/>
    <linearGradient id="Laiton_terne-11" data-name="Laiton terne" x1="57.01" y1="1342.83" x2="1666.42" y2="2084.01" xlink:href="#Laiton_terne"/>
    <linearGradient id="Laiton_terne-12" data-name="Laiton terne" x1="46.18" y1="1366.36" x2="1655.58" y2="2107.53" xlink:href="#Laiton_terne"/>
    <linearGradient id="Laiton_terne-13" data-name="Laiton terne" x1="43.47" y1="1372.23" x2="1652.88" y2="2113.4" xlink:href="#Laiton_terne"/>
    <linearGradient id="Laiton_terne-14" data-name="Laiton terne" x1="37.75" y1="1384.65" x2="1647.16" y2="2125.82" xlink:href="#Laiton_terne"/>
    <linearGradient id="Laiton_terne-15" data-name="Laiton terne" x1="33.99" y1="1392.81" x2="1643.4" y2="2133.99" xlink:href="#Laiton_terne"/>
    <linearGradient id="Laiton_terne-16" data-name="Laiton terne" x1="31.57" y1="1398.08" x2="1640.97" y2="2139.26" xlink:href="#Laiton_terne"/>
    <linearGradient id="Laiton_terne-17" data-name="Laiton terne" x1="30.34" y1="1400.75" x2="1639.75" y2="2141.92" xlink:href="#Laiton_terne"/>
    <linearGradient id="Laiton_terne-18" data-name="Laiton terne" x1="30.58" y1="1400.23" x2="1639.98" y2="2141.4" xlink:href="#Laiton_terne"/>
    <linearGradient id="Laiton_terne-19" data-name="Laiton terne" x1="31.83" y1="1397.51" x2="1641.24" y2="2138.68" xlink:href="#Laiton_terne"/>
    <linearGradient id="Laiton_terne-20" data-name="Laiton terne" x1="34.22" y1="1392.31" x2="1643.63" y2="2133.49" xlink:href="#Laiton_terne"/>
    <linearGradient id="Laiton_terne-21" data-name="Laiton terne" x1="37.53" y1="1385.12" x2="1646.94" y2="2126.3" xlink:href="#Laiton_terne"/>
    <linearGradient id="Laiton_terne-22" data-name="Laiton terne" x1="40.39" y1="1378.93" x2="1649.79" y2="2120.1" xlink:href="#Laiton_terne"/>
    <linearGradient id="Laiton_terne-23" data-name="Laiton terne" x1="49.89" y1="1358.29" x2="1659.3" y2="2099.47" xlink:href="#Laiton_terne"/>
    <linearGradient id="Laiton_terne-24" data-name="Laiton terne" x1="59.83" y1="1336.7" x2="1669.24" y2="2077.87" xlink:href="#Laiton_terne"/>
    <linearGradient id="Laiton_terne-25" data-name="Laiton terne" x1="67.7" y1="1319.63" x2="1677.1" y2="2060.8" xlink:href="#Laiton_terne"/>
    <linearGradient id="Laiton_terne-26" data-name="Laiton terne" x1="74.46" y1="1304.95" x2="1683.86" y2="2046.12" xlink:href="#Laiton_terne"/>
    <linearGradient id="Laiton_terne-27" data-name="Laiton terne" x1="84.55" y1="1283.02" x2="1693.96" y2="2024.2" xlink:href="#Laiton_terne"/>
    <linearGradient id="Laiton_terne-28" data-name="Laiton terne" x1="97.4" y1="1255.14" x2="1706.8" y2="1996.31" xlink:href="#Laiton_terne"/>
    <linearGradient id="Laiton_terne-29" data-name="Laiton terne" x1="116.8" y1="1213" x2="1726.21" y2="1954.18" xlink:href="#Laiton_terne"/>
    <linearGradient id="Laiton_terne-30" data-name="Laiton terne" x1="130.48" y1="1183.3" x2="1739.88" y2="1924.48" xlink:href="#Laiton_terne"/>
    <linearGradient id="Laiton_terne-31" data-name="Laiton terne" x1="148.67" y1="1143.81" x2="1758.07" y2="1884.98" xlink:href="#Laiton_terne"/>
    <linearGradient id="Laiton_terne-32" data-name="Laiton terne" x1="161.87" y1="1115.14" x2="1771.28" y2="1856.31" xlink:href="#Laiton_terne"/>
    <linearGradient id="Laiton_terne-33" data-name="Laiton terne" x1="175.41" y1="1085.74" x2="1784.82" y2="1826.91" xlink:href="#Laiton_terne"/>
    <linearGradient id="Laiton_terne-34" data-name="Laiton terne" x1="188.56" y1="1057.18" x2="1797.97" y2="1798.35" xlink:href="#Laiton_terne"/>
    <linearGradient id="Laiton_terne-35" data-name="Laiton terne" x1="200.91" y1="1030.36" x2="1810.32" y2="1771.53" xlink:href="#Laiton_terne"/>
    <linearGradient id="Laiton_terne-36" data-name="Laiton terne" x1="221.04" y1="986.65" x2="1830.45" y2="1727.82" xlink:href="#Laiton_terne"/>
    <linearGradient id="Laiton_terne-37" data-name="Laiton terne" x1="239.82" y1="945.87" x2="1849.23" y2="1687.05" xlink:href="#Laiton_terne"/>
    <linearGradient id="Laiton_terne-38" data-name="Laiton terne" x1="266.7" y1="887.51" x2="1876.1" y2="1628.69" xlink:href="#Laiton_terne"/>
    <linearGradient id="Laiton_terne-39" data-name="Laiton terne" x1="286.25" y1="845.05" x2="1895.66" y2="1586.23" xlink:href="#Laiton_terne"/>
    <linearGradient id="Laiton_terne-40" data-name="Laiton terne" x1="305.7" y1="802.83" x2="1915.1" y2="1544" xlink:href="#Laiton_terne"/>
    <linearGradient id="Laiton_terne-41" data-name="Laiton terne" x1="328.61" y1="753.06" x2="1938.02" y2="1494.24" xlink:href="#Laiton_terne"/>
    <linearGradient id="Laiton_terne-42" data-name="Laiton terne" x1="348.79" y1="709.25" x2="1958.2" y2="1450.42" xlink:href="#Laiton_terne"/>
    <linearGradient id="Laiton_terne-43" data-name="Laiton terne" x1="365.07" y1="673.91" x2="1974.47" y2="1415.08" xlink:href="#Laiton_terne"/>
    <linearGradient id="Laiton_terne-44" data-name="Laiton terne" x1="393.11" y1="613.02" x2="2002.51" y2="1354.19" xlink:href="#Laiton_terne"/>
  </defs>
  <circle class="cls-50" cx="1000" cy="1000" r="848.68"/>
  <path class="cls-46" d="M1000,1884.91c-119.45,0-235.34-23.4-344.46-69.55-105.38-44.57-200.01-108.37-281.27-189.63-81.26-81.26-145.06-175.89-189.63-281.27-46.15-109.11-69.55-225-69.55-344.46s23.4-235.34,69.55-344.46c44.57-105.38,108.37-200.01,189.63-281.27,81.26-81.26,175.89-145.06,281.27-189.63,109.11-46.15,225-69.55,344.46-69.55s235.34,23.4,344.46,69.55c105.38,44.57,200.01,108.37,281.27,189.63,81.26,81.26,145.06,175.89,189.63,281.27,46.15,109.12,69.55,225.01,69.55,344.46s-23.4,235.34-69.55,344.46c-44.57,105.38-108.37,200.01-189.63,281.27-81.26,81.26-175.89,145.06-281.27,189.63-109.12,46.15-225.01,69.55-344.46,69.55ZM1000,168.66c-112.24,0-221.11,21.98-323.59,65.32-98.99,41.87-187.9,101.82-264.26,178.17-76.36,76.36-136.3,165.27-178.17,264.26-43.34,102.48-65.32,211.35-65.32,323.59s21.98,221.11,65.32,323.59c41.87,98.99,101.82,187.9,178.17,264.26,76.36,76.36,165.27,136.31,264.26,178.17,102.47,43.34,211.34,65.32,323.59,65.32s221.11-21.98,323.59-65.32c98.99-41.87,187.9-101.81,264.26-178.17,76.36-76.36,136.31-165.27,178.17-264.26,43.34-102.47,65.32-211.34,65.32-323.59s-21.98-221.11-65.32-323.59c-41.87-98.99-101.82-187.9-178.17-264.26-76.36-76.36-165.27-136.3-264.26-178.17-102.48-43.34-211.35-65.32-323.59-65.32ZM592.12,1755.23c23.95,12.94,48.59,24.77,73.85,35.46,30.14,12.75,60.81,23.7,91.94,32.85-31.13-9.15-61.81-20.11-91.94-32.86-25.27-10.69-49.9-22.52-73.85-35.46ZM1420.95,1748.02c-28.04,15.79-57.04,30.03-86.93,42.67-28.17,11.92-56.82,22.27-85.87,31.05,29.05-8.78,57.7-19.13,85.87-31.05,29.89-12.64,58.88-26.88,86.93-42.67ZM1692.14,1507.5c-25.74,35.01-54.22,68.16-85.35,99.29-30.71,30.71-63.38,58.84-97.87,84.31,34.49-25.46,67.17-53.6,97.87-84.31,31.13-31.13,59.61-64.28,85.35-99.29ZM357.6,1569c11.46,12.9,23.33,25.51,35.62,37.79,17.6,17.6,35.85,34.36,54.71,50.25-18.87-15.89-37.11-32.65-54.71-50.25-12.29-12.29-24.16-24.89-35.62-37.79ZM1823.55,1242.08c-9.15,31.13-20.11,61.81-32.86,91.94-12.46,29.46-26.47,58.06-42,85.73,15.52-27.67,29.53-56.27,42-85.73,12.75-30.14,23.7-60.81,32.85-91.94ZM141.87,1000c0,99.97,16.89,197.36,50.28,290.16-33.39-92.81-50.28-190.19-50.28-290.16ZM192.16,709.84c-33.39,92.8-50.28,190.19-50.28,290.16,0-99.97,16.89-197.36,50.28-290.16ZM1754.77,591.26c13.12,24.23,25.11,49.15,35.92,74.72,11.92,28.17,22.27,56.82,31.05,85.87-8.78-29.05-19.13-57.7-31.05-85.87-10.82-25.57-22.8-50.49-35.93-74.72ZM1569,357.6c12.9,11.46,25.51,23.33,37.79,35.62,17.68,17.68,34.5,36,50.45,54.96-15.95-18.95-32.78-37.28-50.45-54.96-12.29-12.29-24.89-24.16-37.79-35.62ZM1000,141.87c99.97,0,197.36,16.89,290.16,50.28-92.8-33.39-190.19-50.28-290.16-50.28ZM1000,141.87c-99.97,0-197.36,16.89-290.16,50.28,92.81-33.39,190.19-50.28,290.16-50.28Z"/>
  <path class="cls-49" d="M1000,1871.52c-117.65,0-231.79-23.05-339.24-68.49-103.78-43.9-196.98-106.73-277.02-186.77-80.03-80.04-142.87-173.24-186.77-277.02-45.45-107.45-68.49-221.59-68.49-339.24s23.04-231.79,68.49-339.24c43.9-103.78,106.73-196.98,186.77-277.02s173.24-142.87,277.02-186.77c107.45-45.45,221.59-68.49,339.24-68.49s231.79,23.04,339.24,68.49c103.78,43.9,196.98,106.73,277.02,186.77,80.03,80.03,142.87,173.24,186.77,277.02,45.45,107.45,68.49,221.59,68.49,339.24s-23.05,231.79-68.49,339.24c-43.9,103.78-106.73,196.98-186.77,277.02-80.04,80.03-173.24,142.87-277.02,186.77-107.45,45.45-221.59,68.49-339.24,68.49ZM1000,155.27c-114.04,0-224.67,22.33-328.8,66.38-100.59,42.55-190.93,103.46-268.51,181.04-77.58,77.58-138.49,167.92-181.04,268.51-44.04,104.13-66.38,214.76-66.38,328.8s22.33,224.67,66.38,328.8c42.55,100.59,103.46,190.93,181.04,268.51,77.58,77.58,167.92,138.49,268.51,181.04,104.13,44.05,214.76,66.38,328.8,66.38s224.67-22.33,328.8-66.38c100.59-42.54,190.93-103.46,268.51-181.04,77.58-77.58,138.49-167.92,181.04-268.51,44.05-104.13,66.38-214.76,66.38-328.8s-22.33-224.67-66.38-328.8c-42.54-100.59-103.46-190.93-181.04-268.51-77.58-77.58-167.92-138.49-268.51-181.04-104.13-44.04-214.76-66.38-328.8-66.38Z"/>
  <path class="cls-42" d="M1215.2,581.15l13.58-5.21-14.48,1.34c-103.97,9.58-193.5,57.79-250.3,96.56-59.58,40.67-96.63,79.75-99.23,82.53-.04.03-.07.05-.11.09-1.27.94-2.54,1.89-3.8,2.85,58.34-63.62,147.99-152.46,148.94-153.4l7.43-7.35-9.63,4.08c-55.11,23.34-95.92,67.35-120.46,100.15-26.54,35.5-40.3,65.95-40.43,66.25l-1,2.25c-18.78,15.43-36.35,32.09-52.61,49.9-.91.99-1.82,1.98-2.71,2.99-4.57,5.06-9.03,10.23-13.37,15.48,14.53-21.8,57.05-85.21,73.08-105.36,19.49-24.48,63.68-89.21,64.12-89.87l5.14-7.53-7.83,4.67c-54.05,32.28-90.08,86-110.79,125.38-22.41,42.63-32.21,78.15-32.3,78.5l-2.02,7.41c-3.24,4.18-6.42,8.42-9.52,12.71-.31.43-.62.86-.92,1.29-.88,1.23-1.77,2.46-2.64,3.7-4.66,6.59-9.16,13.3-13.5,20.13,27.29-63.47,53.4-168.13,53.68-169.26l2.02-8.2-5.5,6.4c-61.12,71.1-60.5,183.24-60.48,184.37l.04,3.44c-14.99,25.61-27.86,52.67-38.46,80.84-26.99,71.69-29.87,126.56-29.89,127.11l4.02.19c.03-.54,2.89-54.9,29.69-126.03,9.72-25.82,21.39-50.71,34.83-74.38l1.9-.12c105.09-6.51,192.05-51.7,192.91-52.15l7.77-4.08-8.77.29c-68.79,2.36-117.6,16.42-146.44,27.8-24.05,9.5-38.4,18.59-44.06,22.53,7.35-12.58,15.23-24.82,23.58-36.64,1.45-2.05,2.91-4.07,4.38-6.09l1.83-.05c126.17-4,217.96-64.26,218.87-64.87l8.58-5.72-10.11,2.09c-.75.15-76.03,15.7-113.88,22.22-33.71,5.8-87.16,33.31-101.14,40.73,10.26-13.69,21.23-26.83,32.85-39.37l1.67-.54c38.09-12.2,69.25-19.61,133.38-31.7,61.23-11.54,123.7-55.86,124.33-56.3l8.95-6.4-10.63,2.83c-.64.16-65.28,17.29-132.51,31.74-50.05,10.75-94.27,36.15-114.16,48.84,10.46-10.63,21.43-20.8,32.85-30.51.67-.56,1.33-1.13,2-1.67,2.53-2.14,5.1-4.26,7.69-6.33,6.94-2.21,107.54-34.04,160.78-51.32,55.53-18.04,104.48-55.15,104.96-55.53l8.24-6.29-9.99,2.76c-.78.21-77.89,21.55-116.28,34.82-24.68,8.54-95.26,44.1-129.98,61.87-.29.15-.58.28-.86.43.9-.82,1.82-1.63,2.76-2.44,86.64-75.6,341.33-173.83,343.93-174.83ZM966.36,677.1c53.64-36.59,136.65-81.68,233.33-94.17-49.13,19.55-214.61,87.43-303.04,148.53,16.87-15,40.58-34.49,69.71-54.36ZM999.06,610.92c-23.41,23.36-93.72,93.87-142.02,146.6,16.71-31.07,64.7-109.11,142.02-146.6ZM787.38,729.28c-7.14,27.51-30.17,113.05-53.53,165.12,1.27-27.36,8.85-107.54,53.53-165.12ZM778.86,890.58c27.15-10.7,72.23-23.79,135.25-27.03-23.69,11.04-93.37,40.47-175.37,46.98,7-4.5,20.28-12.15,40.11-19.96ZM867.05,824.33c28.98-5,79.86-15.25,102.55-19.89-26.08,14.88-101.08,52.67-197.92,57.83,18.55-9.58,65.6-32.81,95.37-37.94ZM804.37,768.76c19.39-36.87,52.37-86.45,101.08-118.59-12.48,18.16-43.17,62.42-58.46,81.64-15.16,19.04-53.72,76.33-70.38,101.26,4.79-14.08,13.82-37.79,27.76-64.31ZM924.1,765.28c50.49-10.85,99.51-23.2,121.15-28.78-19.88,12.76-66.79,40.35-112.87,49.04-56.75,10.7-87.76,17.75-120.56,27.68,19.86-12.63,63.25-37.42,112.29-47.95ZM1000.66,699.92c29.56-10.23,82.23-25.27,105.03-31.67-16.67,11.46-53.83,35.08-94.51,48.28-39.2,12.72-104.09,33.35-138.35,44.21,35.21-17.97,104.09-52.61,127.83-60.82Z"/>
  <path class="cls-48" d="M1558.64,1242.08c-89.54,226.96-226.63,332.3-532.42,299.53-493.84-119.4-637.45-824.37-59-943.87-251.4,73.4-387.26,350.32-255.62,595.96,154.46,306.41,662.28,383.23,847.04,48.38Z"/>
  <path class="cls-53" d="M967.21,597.73c-210.48,47.27-407.19,213.9-405.37,449.24-24.5-34.7-52.15-60.09-84.71-71.09,80.79-230.64,232.25-371.77,490.08-378.15Z"/>
  <path class="cls-44" d="M1162.32,1581.44c-330.98,120.59-661.04-102.33-704.88-436.35,31.14,32.75,56.76,65.24,66.56,96.99-36.91-152.79-128.25-224.09-297.99-177.95,61.98-46.22,125.17-61.35,193.87-24.2,83.75,26.94,129.35,76.01,141.8,145.21,44.4,96.22,110.6,184.41,182.64,268.87,106.9,97.65,254.6,133.55,417.99,127.43Z"/>
  <path class="cls-53" d="M1162.32,1581.44c-276.31,46.89-519.39-158.81-600.63-396.32-47.39-129.7-205.57-202.21-335.68-120.99,100.75-127.81,295.19-90.94,350.17,64.54,80.17,270.58,298.27,463.22,586.14,452.77Z"/>
  <path class="cls-51" d="M1416.64,1365.56c-4.51,3.39-9.11,6.7-13.77,9.91-.03.01-.05.03-.08.05-66.28,45.64-146.62,72.36-233.18,72.36-32.97,0-65.05-3.88-95.79-11.21h-.01c-2.84-.67-5.65-1.38-8.46-2.12l157.58-132.13h.01l193.7,63.13Z"/>
  <path class="cls-54" d="M950.93,1213.76l-129.79,41.72-39.96,12.86c-23.93-28.69-44.62-60.19-61.5-93.92l57.54-13.34,7.06-1.63h.01l166.65,54.32Z"/>
  <path class="cls-56" d="M1198.99,1294.62l-171.31,128.14-3.76,2.81c-89.67-25-168.88-75.07-229.63-142.15l36.52-13.3h0s138.32-50.42,138.32-50.42h.01l229.85,74.92Z"/>
  <path class="cls-52" d="M1572.34,950.42l-286.5,6.7v-17.4l281.3-10.94c1.93,7.14,3.67,14.36,5.2,21.64Z"/>
  <path class="cls-47" d="M1567.15,928.78l-281.3,10.94.82-4.51,277.49-17.01c1.04,3.51,2.05,7.03,3,10.58Z"/>
  <path class="cls-52" d="M1580.43,1009.09l-381.19-7.07v-23.87l378.05.39c1.41,10.07,2.46,20.26,3.13,30.55Z"/>
  <path class="cls-47" d="M1577.3,978.54l-378.05-.39,71.85-6.9,303.94-6.96c.84,4.71,1.59,9.47,2.26,14.25Z"/>
  <path class="cls-52" d="M1581.17,1046.55c-.31,12.84-1.22,25.53-2.68,38.05l-503.64-33.8v-29.41l506.32,25.17Z"/>
  <path class="cls-47" d="M1581.3,1036.19c0,3.47-.04,6.92-.13,10.37l-506.32-25.17,118.98-8.69,387.31,12.2c.11,3.75.16,7.51.16,11.29Z"/>
  <path class="cls-52" d="M1568.38,1138.92c-4.73,18.43-10.71,36.35-17.84,53.68l-617.01-93.56v-33.78l634.85,73.66Z"/>
  <path class="cls-47" d="M1576.36,1100.17c-2.05,13.14-4.73,26.06-7.98,38.76l-634.85-73.66,121.85-5.85,520.98,40.75Z"/>
  <path class="cls-55" d="M1539.6,1216.92c-23.54,48.13-56.21,90.98-95.75,126.31l-325.43-97.51,145.83-77.37,275.34,48.58Z"/>
  <polygon class="cls-58" points="1245.36 1165.01 1093.75 1238.31 1093.74 1238.31 861.77 1168.8 1037.9 1128.42 1245.36 1165.01"/>
  <polygon class="cls-57" points="1019.26 1125.13 841.99 1162.87 841.98 1162.87 771.6 1141.78 710.45 1123.46 766.23 1118.85 914.25 1106.61 1019.26 1125.13"/>
  <path class="cls-59" d="M775.8,1156.68l-58.33,13.26c-5.99-12.25-11.46-24.8-16.41-37.61l74.73,24.35Z"/>
  <path class="cls-40" d="M833.59,915.33s-51.99,80.18-51.99,108.9,23.28,51.99,51.99,51.99,51.99-23.28,51.99-51.99-51.99-108.9-51.99-108.9ZM833.59,1069.52c-24.98,0-45.29-20.32-45.29-45.29,0-4.25,1.38-9.99,3.71-16.63,9.39,40.45,37.51,33.66,36,43.87-1.49,10-21.15,1.86-21.91,1.54,33.27,19.66,53.29,4.11,61.62-20.83,8.21-24.64-11.95-57.75-12.47-58.61,2.64,5.68-.01,18.52-.01,18.52-23.41-5.14-14.28-39.76-26.99-55.51,1.89-3.12,3.68-6.05,5.34-8.75,16.43,26.45,45.29,76.96,45.29,96.39,0,24.98-20.32,45.29-45.29,45.29Z"/>
  <g>
    <path class="cls-43" d="M308.5,1245.4c1.89,3.26,4.05,7.66,6.17,13.51,2.58,7.1,2.85,12.95,1.05,17.39-1.58,4.01-4.95,7.37-9.93,9.18-5.07,1.84-9.63,1.79-13.56,0-5.5-2.37-9.78-7.82-12.35-14.88-.8-2.19-1.44-4.21-1.6-6.04l-22.46,8.16-2.63-7.22,55.31-20.1ZM284.16,1262.43c.12,1.78.69,3.85,1.55,6.23,3.19,8.77,9.41,12.5,17.06,9.72,7.41-2.69,9.11-9.3,6.23-17.23-1.16-3.19-2.32-5.46-3.06-6.63l-21.79,7.92Z"/>
    <path class="cls-41" d="M328.41,1295.33l-55,22.89-2.97-7.14,55-22.89,2.97,7.14Z"/>
    <path class="cls-37" d="M287.32,1327.18c-.49,4.03.09,9.3,2.33,14.09,3.33,7.13,9.02,9.58,14.48,7.02,5-2.34,6.58-6.65,5.9-15.2-1-10.27,1.08-17.9,8.63-21.43,8.4-3.93,17.9.14,22.82,10.65,2.56,5.48,3.2,10.15,2.96,13.13l-6.62.73c.22-2.2.07-6.53-2.21-11.39-3.47-7.41-9.17-8.16-12.85-6.44-5.01,2.34-5.95,6.78-5.34,15.58.69,10.83-1.54,17.5-9.46,21.2-8.28,3.87-18.41,1.18-24.4-11.6-2.44-5.22-3.53-11.64-2.93-15.44l6.67-.89Z"/>
    <path class="cls-39" d="M320.73,1409.1c-2.56-1.77-6.56-6.08-10.05-12.45-8.06-14.72-4.79-30.86,12.37-40.25,16.4-8.98,33.47-3.95,42.35,12.27,3.53,6.46,4.45,11.37,4.49,13.66l-6.4,1.34c-.18-3.2-1.23-7.35-3.6-11.69-6.72-12.27-19-16.09-32.72-8.58-12.79,7-16.92,18.84-9.99,31.5,2.27,4.15,5.4,7.87,8.2,9.9l-4.64,4.3Z"/>
    <path class="cls-36" d="M380.03,1395.17l-50.81,31.1-4.04-6.6,50.81-31.1,4.04,6.6Z"/>
    <path class="cls-38" d="M337.16,1439.4l49.1-33.73,4.79,6.97-14.01,32.78c-3.29,7.55-6.5,13.94-9.97,19.75l.19.11c6.16-5.08,12.07-9.31,19.68-14.53l20.58-14.14,4.1,5.97-49.1,33.73-4.43-6.44,14.17-32.71c3.18-7.16,6.51-14.31,10.17-20.43l-.22-.16c-5.96,4.65-11.82,8.81-19.94,14.38l-21,14.42-4.1-5.97Z"/>
    <path class="cls-30" d="M413.19,1495.81l-14.33-18.11-16.88,13.35,16.03,20.26-5.03,3.98-20.83-26.32,46.72-36.97,19.99,25.26-5.03,3.98-15.19-19.19-14.8,11.71,14.33,18.11-4.99,3.95Z"/>
    <path class="cls-24" d="M407.15,1517.48c.68,4,2.74,8.89,6.25,12.84,5.23,5.88,11.38,6.6,15.89,2.59,4.13-3.67,4.41-8.25,1.32-16.26-3.89-9.56-4.07-17.46,2.16-23,6.93-6.16,17.2-4.98,24.91,3.69,4.02,4.52,5.96,8.81,6.58,11.73l-6.14,2.59c-.42-2.17-1.8-6.28-5.36-10.29-5.44-6.12-11.12-5.2-14.15-2.5-4.13,3.68-3.76,8.2-.67,16.45,3.75,10.19,3.51,17.21-3.01,23.02-6.83,6.07-17.31,6.39-26.69-4.16-3.83-4.31-6.7-10.15-7.21-13.96l6.14-2.75Z"/>
    <path class="cls-29" d="M458.74,1552.94c3.54-3.76,9.45-3.74,13.1-.18,3.69,3.61,3.8,9.45.18,13.15-3.6,3.69-9.43,3.75-13.15.11-3.64-3.56-3.8-9.33-.14-13.09Z"/>
    <path class="cls-31" d="M519.12,1568.18l-13.78-11.8,4.23-4.94,33.51,28.69-4.23,4.94-13.85-11.86-34.52,40.31-5.87-5.03,34.52-40.31Z"/>
    <path class="cls-25" d="M552.71,1627.16l-18.39-13.99-13.03,17.13,20.56,15.64-3.88,5.1-26.72-20.33,36.07-47.42,25.64,19.5-3.88,5.1-19.48-14.82-11.42,15.02,18.39,13.99-3.86,5.07Z"/>
    <path class="cls-27" d="M580.6,1609.25c3.68,1.52,8.62,4.22,13.01,7.17,6.79,4.54,10.4,8.83,11.62,13.68.99,3.8.18,8.14-2.42,12.01-4.35,6.5-11.4,8.05-17.78,6.37l-.12.18c2.89,3.85,2.78,8.95.55,14.89-3,8.01-5,13.53-5.29,16.14l-6.63-4.44c.18-1.95,1.89-6.93,4.68-14.03,3.07-7.76,2.15-12.19-3.51-16.25l-6.05-4.05-14.36,21.46-6.39-4.28,32.68-48.84ZM571.9,1636.06l6.53,4.37c6.84,4.58,13.67,3.75,17.47-1.92,4.3-6.43,1.54-12.33-5.2-16.85-3.1-2.08-5.43-3.23-6.71-3.67l-12.1,18.07Z"/>
    <path class="cls-23" d="M619.22,1634.64c3.77,1.29,8.87,3.67,13.44,6.33,7.06,4.11,10.94,8.15,12.46,12.92,1.23,3.73.69,8.11-1.65,12.14-3.93,6.77-10.87,8.76-17.34,7.48l-.11.19c3.13,3.66,3.34,8.76,1.49,14.82-2.49,8.18-4.13,13.82-4.26,16.44l-6.9-4.01c.06-1.96,1.45-7.03,3.79-14.3,2.57-7.94,1.38-12.3-4.53-16l-6.3-3.66-12.98,22.32-6.65-3.86,29.53-50.81ZM612.24,1661.95l6.8,3.95c7.12,4.14,13.88,2.88,17.32-3.02,3.89-6.69.75-12.4-6.26-16.49-3.23-1.88-5.63-2.88-6.93-3.24l-10.93,18.8Z"/>
    <path class="cls-26" d="M650.54,1697.93l-13.8,14.07-7.16-3.53,44.52-44.47,8.3,4.09-8.1,62.43-7.38-3.64,2.56-19.61-18.94-9.34ZM670.75,1701.19l2.29-17.98c.57-4.07,1.33-7.65,2.05-11.11l-.19-.09c-2.31,2.75-4.75,5.6-7.41,8.35l-12.89,12.87,16.14,7.96Z"/>
    <path class="cls-35" d="M687.26,1725.78c2.35,3.3,6.34,6.8,11.22,8.83,7.27,3.01,13.12.98,15.43-4.59,2.11-5.1.37-9.35-5.9-15.2-7.66-6.91-11.28-13.94-8.09-21.64,3.55-8.57,13.3-11.98,24.02-7.54,5.59,2.31,9.2,5.33,11.04,7.69l-4.4,5.01c-1.32-1.77-4.36-4.87-9.31-6.92-7.56-3.13-12.27.17-13.82,3.92-2.12,5.11.19,9.02,6.57,15.1,7.82,7.53,10.67,13.96,7.32,22.03-3.5,8.44-12.79,13.29-25.83,7.89-5.32-2.2-10.46-6.22-12.58-9.42l4.32-5.16Z"/>
    <path class="cls-34" d="M729.17,1742.73c2.54,3.16,6.73,6.42,11.72,8.16,7.43,2.58,13.15.22,15.13-5.48,1.81-5.22-.17-9.35-6.78-14.83-8.05-6.45-12.07-13.26-9.34-21.13,3.04-8.76,12.58-12.73,23.54-8.93,5.71,1.98,9.5,4.78,11.47,7.03l-4.1,5.26c-1.42-1.69-4.63-4.6-9.7-6.36-7.73-2.69-12.24.88-13.57,4.72-1.81,5.22.71,8.99,7.44,14.69,8.25,7.06,11.46,13.31,8.6,21.56-3,8.63-12,14.02-25.33,9.39-5.44-1.89-10.8-5.59-13.1-8.66l4.02-5.4Z"/>
    <path class="cls-22" d="M807.69,1748.02l-22.23-6.29-5.86,20.71,24.86,7.04-1.75,6.17-32.3-9.14,16.23-57.33,30.99,8.77-1.75,6.17-23.55-6.67-5.14,18.15,22.23,6.29-1.73,6.13Z"/>
    <path class="cls-21" d="M815.53,1769.13c2.89,2.84,7.43,5.6,12.59,6.74,7.68,1.7,13.09-1.32,14.39-7.21,1.19-5.4-1.26-9.27-8.46-13.94-8.75-5.47-13.54-11.76-11.74-19.9,2-9.06,11.01-14.11,22.35-11.61,5.91,1.31,9.99,3.65,12.21,5.65l-3.46,5.7c-1.61-1.51-5.14-4.03-10.38-5.19-7.99-1.77-12.06,2.3-12.93,6.27-1.19,5.4,1.76,8.85,9.1,13.73,9.01,6.05,12.94,11.88,11.05,20.41-1.97,8.93-10.28,15.32-24.07,12.28-5.63-1.24-11.38-4.3-14.03-7.08l3.36-5.83Z"/>
    <path class="cls-18" d="M878.11,1767.6c.65-5.12,5.46-8.58,10.51-7.83,5.11.75,8.62,5.42,7.86,10.54-.75,5.1-5.44,8.57-10.58,7.81-5.04-.74-8.56-5.33-7.79-10.51Z"/>
    <path class="cls-15" d="M928.34,1738.43c4.76-.46,10.38-.6,16.42-.2,11,.73,18.71,3.86,23.59,9.06,5,5.17,7.64,12.26,7.01,21.83-.65,9.75-4.21,17.43-10.08,22.56-5.98,5.16-15.38,7.59-26.89,6.83-5.5-.36-10.05-.88-13.92-1.59l3.88-58.49ZM932.56,1791.53c1.93.44,4.77.68,7.7.87,16.45,1.13,25.92-7.45,26.99-23.52,1.02-14.04-6.33-23.42-22.52-24.49-3.97-.26-6.97-.09-9.05.19l-3.11,46.96Z"/>
    <path class="cls-32" d="M1016.56,1772.12l-23.1.37.35,21.52,25.83-.42.1,6.41-33.57.54-.96-59.57,32.2-.52.1,6.41-24.47.4.31,18.87,23.1-.37.1,6.37Z"/>
    <path class="cls-20" d="M1029.54,1790.54c3.56,1.95,8.67,3.37,13.95,3.06,7.86-.45,12.24-4.82,11.89-10.85-.32-5.51-3.73-8.58-11.93-11.12-9.9-2.88-16.22-7.64-16.7-15.96-.53-9.26,6.77-16.57,18.35-17.24,6.04-.35,10.61.79,13.29,2.12l-1.78,6.42c-1.96-1.02-6.04-2.48-11.39-2.18-8.17.47-10.98,5.49-10.74,9.54.32,5.52,4.09,8.04,12.49,10.74,10.32,3.38,15.68,7.92,16.18,16.64.53,9.12-5.73,17.54-19.82,18.35-5.75.33-12.12-1.04-15.42-3l1.65-6.52Z"/>
    <path class="cls-16" d="M1077.88,1736.62l5.98,59.28-7.7.78-5.98-59.28,7.7-.78Z"/>
    <path class="cls-19" d="M1143.6,1784.9c-3.21,1.81-9.67,4.8-17.61,6.02-8.93,1.37-16.64.25-23.22-4.4-5.82-4.1-10.15-11.44-11.55-20.6-2.67-17.57,7.43-32.28,27.16-35.31,6.8-1.05,12.43-.38,15.14.44l-.95,6.5c-3.36-.95-7.45-1.43-13.4-.52-14.28,2.19-22.28,12.53-20.02,27.27,2.29,14.92,12.6,22.38,26.38,20.26,4.97-.76,8.24-1.98,9.86-3.14l-2.7-17.54-11.91,1.83-.94-6.08,19.39-2.98,4.34,28.26Z"/>
    <path class="cls-17" d="M1158.3,1784.73l-13.55-58.02,8.24-1.92,25.43,24.98c5.83,5.81,10.62,11.13,14.76,16.47l.17-.13c-2.49-7.59-4.28-14.63-6.38-23.62l-5.68-24.32,7.06-1.65,13.55,58.01-7.61,1.78-25.31-25.1c-5.51-5.57-10.96-11.27-15.33-16.9l-.24.15c2.16,7.25,3.9,14.21,6.14,23.8l5.8,24.81-7.05,1.65Z"/>
    <path class="cls-33" d="M1256.45,1728.22l-21.9,7.33,6.83,20.41,24.5-8.2,2.04,6.08-31.84,10.66-18.91-56.5,30.54-10.22,2.04,6.08-23.21,7.77,5.99,17.89,21.9-7.33,2.02,6.04Z"/>
    <path class="cls-6" d="M1309.67,1737.29l-12.03-9.31c-4.77-3.5-7.76-5.83-10.77-8.31l-.18.07c-.24,3.83-.64,7.44-1.5,13.35l-1.7,14.85-8.22,3.34,5.54-34.82-27.32-20.63,8.25-3.35,12.61,9.98c3.48,2.72,6.14,4.89,8.9,7.27l.18-.07c.24-3.91.65-7.04,1.24-11.37l2.22-16.02,8.26-3.36-5.91,33.74,28.74,21.29-8.29,3.37Z"/>
    <path class="cls-11" d="M1315.94,1676.1l-16.34,7.9-2.83-5.85,39.72-19.2,2.83,5.85-16.42,7.93,23.09,47.78-6.96,3.37-23.09-47.78Z"/>
    <path class="cls-14" d="M1383.45,1668.94l-20.17,11.25,10.48,18.8,22.56-12.58,3.12,5.6-29.32,16.34-29.01-52.04,28.13-15.68,3.12,5.6-21.37,11.92,9.19,16.48,20.17-11.25,3.1,5.56ZM1360.2,1630.22l-4.82,14.49-5.51,3.07,2.12-12.98,8.21-4.58Z"/>
    <path class="cls-10" d="M1378.18,1636.23c2.87-2.76,7.32-6.2,11.78-9.05,6.88-4.4,12.25-5.99,17.19-5.17,3.88.61,7.53,3.1,10.04,7.02,4.22,6.59,2.81,13.67-1.28,18.84l.12.18c4.68-1.11,9.31,1.03,13.86,5.46,6.14,5.96,10.4,10,12.67,11.31l-6.72,4.3c-1.72-.95-5.59-4.5-10.99-9.91-5.88-5.92-10.3-6.85-16.3-3.29l-6.14,3.92,13.91,21.75-6.48,4.14-31.67-49.5ZM1399.27,1654.93l6.62-4.24c6.94-4.44,8.91-11.03,5.24-16.78-4.17-6.52-10.68-6.34-17.53-1.98-3.14,2.01-5.13,3.69-6.05,4.68l11.72,18.32Z"/>
    <path class="cls-12" d="M1422.92,1605.53l34.36,48.66-6.32,4.46-34.36-48.66,6.32-4.46Z"/>
    <path class="cls-8" d="M1476.82,1604.52l-18.28,14.12,13.15,17.03,20.44-15.79,3.92,5.07-26.56,20.52-36.42-47.15,25.49-19.69,3.92,5.07-19.37,14.96,11.53,14.93,18.28-14.12,3.89,5.04Z"/>
    <path class="cls-7" d="M1472,1567.41l23.4,26.44c8.8,9.95,16.96,10.27,22.97,4.94,6.57-5.81,6.98-13.97-1.69-23.77l-23.4-26.44,5.79-5.13,23.03,26.03c12.14,13.72,9.88,25.69.2,34.25-9.11,8.06-20.58,8.94-32.85-4.92l-23.25-26.28,5.79-5.13Z"/>
    <path class="cls-13" d="M1508.09,1535.79c2.18-3.33,5.75-7.68,9.46-11.45,5.73-5.82,10.61-8.57,15.6-8.87,3.92-.27,8.03,1.34,11.35,4.61,5.58,5.49,5.78,12.7,2.95,18.65l.15.15c4.32-2.12,9.31-1.07,14.72,2.23,7.31,4.44,12.36,7.43,14.87,8.2l-5.6,5.69c-1.89-.54-6.45-3.14-12.91-7.21-7.05-4.46-11.57-4.38-16.62.42l-5.11,5.19,18.4,18.1-5.39,5.48-41.88-41.2ZM1532.81,1549.33l5.51-5.6c5.78-5.87,6.24-12.73,1.37-17.52-5.52-5.43-11.82-3.8-17.53,1.97-2.62,2.66-4.18,4.74-4.86,5.91l15.5,15.25Z"/>
    <path class="cls-9" d="M1552.23,1488.89c1.85-3.28,4.54-7.37,8.51-12.18,4.81-5.83,9.71-9.02,14.45-9.73,4.25-.68,8.86.52,12.95,3.9,4.16,3.44,6.43,7.39,6.88,11.69.75,5.94-1.77,12.4-6.56,18.2-1.49,1.8-2.9,3.37-4.39,4.45l18.43,15.21-4.89,5.93-45.39-37.46ZM1579.25,1501.22c1.47-1.01,2.97-2.55,4.58-4.5,5.94-7.2,5.99-14.46-.29-19.64-6.08-5.02-12.64-3.13-18.01,3.38-2.16,2.62-3.52,4.77-4.16,6l17.88,14.76Z"/>
    <path class="cls-28" d="M1581.08,1453.49c1.66-3.62,4.54-8.45,7.64-12.73,4.79-6.61,9.21-10.06,14.1-11.1,3.84-.85,8.14.13,11.91,2.86,6.34,4.59,7.62,11.69,5.7,18l.18.13c3.96-2.74,9.04-2.45,14.89,0,7.89,3.3,13.33,5.5,15.93,5.89l-4.68,6.46c-1.95-.25-6.85-2.14-13.85-5.2-7.64-3.36-12.1-2.6-16.37,2.9l-4.27,5.9,20.9,15.15-4.51,6.22-47.57-34.48ZM1607.54,1463.18l4.61-6.37c4.83-6.67,4.26-13.52-1.27-17.53-6.27-4.54-12.26-1.99-17.03,4.57-2.19,3.02-3.43,5.31-3.92,6.56l17.61,12.76Z"/>
    <path class="cls-1" d="M1650.44,1406.33l-12.4,19.49,18.15,11.55,13.87-21.79,5.41,3.44-18.02,28.32-50.26-31.98,17.29-27.17,5.41,3.44-13.14,20.65,15.92,10.13,12.4-19.49,5.37,3.42Z"/>
    <path class="cls-3" d="M1682.85,1351.5c-7.52-3.49-16.65-7.75-23.12-11.26l-.12.21c5.13,5.06,10.59,10.78,16.4,17.25l20.54,22.89-2.74,5.13-29.6-4.8c-8.76-1.46-16.59-3.02-23.61-4.87l-.1.18c6.45,3.68,15.02,8.69,22.64,13.41l21.82,13.44-3.44,6.45-50.61-31.72,4.63-8.67,30.22,4.63c7.59,1.27,14.32,2.59,20.53,4.16l.11-.21c-4.59-4.22-9.4-9.15-14.73-15.01l-20.44-22.96,4.63-8.68,54.3,24.8-3.56,6.67-23.76-11.06Z"/>
    <path class="cls-2" d="M1664.71,1311.1l54.19,24.76-3.21,7.04-54.19-24.76,3.21-7.04Z"/>
    <path class="cls-5" d="M1672.77,1292.86l32.84,12.97c12.36,4.88,19.77,1.47,22.72-6,3.22-8.15-.11-15.62-12.28-20.43l-32.84-12.97,2.84-7.19,32.33,12.77c17.03,6.73,20.45,18.43,15.7,30.44-4.47,11.31-14.3,17.3-31.52,10.5l-32.64-12.89,2.84-7.19Z"/>
    <path class="cls-4" d="M1736.45,1210.03c-8.06-1.93-17.85-4.29-24.89-6.45l-.07.23c6.04,3.94,12.52,8.46,19.49,13.65l24.68,18.35-1.66,5.57-29.96,1.18c-8.88.31-16.86.34-24.1-.08l-.06.2c7.05,2.32,16.45,5.53,24.85,8.64l24.05,8.84-2.09,7-55.89-21.03,2.81-9.42,30.53-1.47c7.69-.26,14.55-.3,20.95,0l.07-.22c-5.33-3.23-11.03-7.1-17.42-11.78l-24.59-18.44,2.82-9.42,58.14,13.51-2.17,7.25-25.47-6.11Z"/>
  </g>
  <g>
    <path class="cls-45" d="M313.66,644.46c.6,1.3,1.05,3,1.34,5.1l4.11,31.94-3.03,6.5-12.77-34.63c-.45-1.22-.82-2.67-1.13-4.34-.3-1.67-.13-3.21.53-4.62.63-1.36,1.69-2.37,3.18-3.05,1.49-.67,3.02-.65,4.58.08,1.52.71,2.57,1.71,3.18,3ZM410.38,775.64c2.12-6.19,2.85-10.51,2.19-12.95-.67-2.44-4.01-5.06-10.04-7.87l-71.38-33.22c-5.69-2.65-9.82-3.52-12.37-2.61-2.55.91-5.42,4.25-8.61,10.01l-2.98-1.39,39.67-85.25,23.21,10.14-1.9,4.07c-7.7-1.93-13.23-2.02-16.57-.28-3.34,1.75-7.2,7.32-11.58,16.73l-10.17,21.85c-1.1,2.36-1.39,3.99-.89,4.89.5.9,1.8,1.84,3.89,2.81l35.81,16.66,11.52-24.76c3.18-6.84,4.2-11.68,3.05-14.5-1.15-2.82-4.55-6.25-10.2-10.28l1.75-3.76,37.06,17.25-1.75,3.76c-6.78-1.69-11.61-2.06-14.49-1.12-2.89.95-5.91,4.81-9.07,11.6l-11.52,24.76,39.73,18.49c3.19,1.48,5.54,1.35,7.05-.4,1.51-1.75,4.61-7.64,9.28-17.69,5.06-10.88,7.61-19.46,7.65-25.75.03-6.28-3.56-13.62-10.78-22l2.08-4.47,23.72,19.9-40.36,86.74-2.98-1.39Z"/>
    <path class="cls-45" d="M408.73,548.32c5.42-4.44,8.36-6.99,8.82-7.65.96-1.37,1.48-2.93,1.59-4.69.1-1.75-.49-3.43-1.76-5.02l2.13-3.05,33.54,21.4-2.32,3.33c-7.83-2.58-14.81-3.69-20.96-3.35-11.62.75-20.94,6.15-27.96,16.21-7.09,10.16-8.87,21.27-5.33,33.32,3.53,12.06,12.34,23,26.42,32.82,12.95,9.03,25.65,12.86,38.11,11.47,12.46-1.39,22.31-7.28,29.57-17.68,5.24-7.51,8.28-15.69,9.1-24.53.51-5.06.22-11.19-.86-18.41l4.57-.81c1.82,6.05,2.6,12.53,2.34,19.45-.47,11.75-4.02,22.38-10.65,31.88-10.88,15.59-24.5,24.5-40.87,26.71-15.12,2.03-29.57-1.77-43.37-11.4-14.13-9.86-22.87-22.6-26.23-38.22-3.5-16.42,0-32.17,10.52-47.25,3.66-5.24,8.2-10.09,13.61-14.53Z"/>
    <path class="cls-45" d="M519.26,588.18c4.1-5.1,6.25-8.92,6.45-11.44.2-2.52-2.06-6.12-6.77-10.81l-55.87-55.48c-4.46-4.42-8.04-6.64-10.75-6.65-2.71-.01-6.54,2.15-11.5,6.49l-2.33-2.31,35.2-35.45,2.33,2.31c-4.34,4.86-6.66,8.71-6.96,11.54-.3,2.83,1.64,6.32,5.81,10.46l60.35,59.92c1.39,1.38,2.72,2.23,3.98,2.55,1.26.32,2.79-.22,4.58-1.61,1.06-.82,2.13-1.73,3.2-2.73,1.08-1,3.04-2.94,5.88-5.8,11.1-11.18,17.68-19.64,19.74-25.4,2.06-5.76,1.14-14.23-2.76-25.43l3.17-3.19,15.67,27.76-67.1,67.58-2.33-2.31Z"/>
    <path class="cls-45" d="M594.13,516.21l-1.88-2.69c3.44-3.02,5.26-6.38,5.46-10.07.2-3.69-1.15-12.46-4.07-26.3l-19.43-92.34,2.89-2.02,93.56,57.09c6.21,3.77,10.49,5.8,12.83,6.09,2.34.29,5.38-.52,9.11-2.42l1.88,2.69-36.92,25.74-1.88-2.69c3.98-3.33,6.4-5.7,7.25-7.1.85-1.4.54-3.15-.94-5.27-.49-.7-1.6-1.79-3.32-3.24-1.72-1.46-3.69-2.88-5.92-4.26l-15.55-9.91-38.27,26.68c2.85,12.13,4.64,19.5,5.37,22.1.73,2.6,1.52,4.52,2.37,5.74,1.71,2.45,3.88,3.45,6.52,3.01,1.62-.29,4.23-1.48,7.82-3.56l1.88,2.69-28.77,20.06ZM630.66,435.32l-44.52-28.38,11.16,51.64,33.36-23.26Z"/>
    <path class="cls-45" d="M628.04,350.77l89.77-44.24,14.15,26.56-3.8,1.87c-6.04-7.56-11.12-11.91-15.25-13.06-4.13-1.15-10.79.55-19.99,5.08l-8.84,4.36,40.04,81.24c3.01,6.12,5.84,9.44,8.47,9.96,2.63.52,7.29-.58,13.98-3.3l1.45,2.95-46.28,22.81-1.45-2.95c6.46-3.82,10.11-6.99,10.92-9.51.82-2.51-.46-7.19-3.83-14.03l-39.12-79.38-8.92,4.39c-8.79,4.33-14.14,8.54-16.07,12.64-1.93,4.1-1.6,10.81,1,20.12l-3.88,1.91-12.36-27.44Z"/>
    <path class="cls-45" d="M770.11,374.16c5.2,6.72,10.42,11.75,15.65,15.08,9.13,5.81,18.67,7.19,28.63,4.12,5.39-1.66,9.52-4.8,12.41-9.42,2.88-4.62,3.38-9.99,1.5-16.1-1.69-5.51-5.15-9.69-10.36-12.55-3.38-1.79-10.02-4-19.91-6.62l-17.2-4.57c-5.19-1.42-9.51-3.13-12.96-5.14-6.43-3.87-10.64-9.02-12.62-15.47-2.63-8.54-1.98-16.51,1.95-23.93,3.93-7.42,10.57-12.57,19.93-15.45,3.85-1.19,8.79-1.66,14.8-1.43,6.01.23,9.4.23,10.17,0,2.09-.64,3.39-1.58,3.88-2.82.49-1.24.68-2.83.56-4.78l3.47-1.07,14.8,34.87-4.05,1.25c-6.09-10-12.84-16.21-20.25-18.64-7.41-2.42-14.08-2.72-20.03-.89-4.63,1.42-8.24,4.03-10.84,7.81-2.6,3.78-3.16,8.1-1.67,12.95,1.34,4.35,3.8,7.66,7.39,9.93,3.6,2.33,8.71,4.34,15.32,6.05l17.68,4.6c11.06,2.87,19.24,6.11,24.53,9.73,5.25,3.69,8.89,8.84,10.93,15.45,2.73,8.87,1.66,17.3-3.2,25.31-4.86,8.01-12.5,13.61-22.9,16.81-5.23,1.61-11,2.3-17.31,2.07s-9.88-.22-10.7.04c-1.98.61-3.13,1.63-3.45,3.05-.32,1.42-.37,2.86-.17,4.3l-3.72,1.14-16.12-34.47,3.88-1.19Z"/>
    <path class="cls-45" d="M903.12,370.83c6.4-1.05,10.54-2.45,12.4-4.19,1.86-1.74,2.61-5.93,2.23-12.57l-4.45-78.61c-.36-6.44-1.55-10.53-3.55-12.26-2-1.73-6.3-2.64-12.88-2.73l-.19-3.28,47.63-2.7c16.05-.91,29.77.97,41.18,5.63,20.56,8.36,31.53,24.76,32.91,49.21.5,8.8-.83,17.27-3.97,25.42s-8.19,15.15-15.13,21.03c-4.41,3.71-9.03,6.6-13.88,8.66-8.84,3.85-19.85,6.14-33.02,6.89l-49.1,2.78-.19-3.28ZM938.45,364.16c1.46.84,4.41,1.14,8.84.89,13.81-.78,25.01-4.16,33.62-10.13,13.21-9.18,19.25-23.93,18.1-44.26-1.03-18.13-7.44-31.46-19.23-39.98-10.11-7.28-23.13-10.47-39.06-9.57-3.97.22-6.63.81-7.99,1.75-1.36.94-1.96,2.88-1.79,5.82l5.09,89.9c.16,2.88.97,4.74,2.44,5.58Z"/>
    <path class="cls-45" d="M1025.5,364.73c6.54.11,10.88-.52,12.99-1.91,2.12-1.38,3.58-5.38,4.39-11.97l9.61-78.15c.77-6.23.32-10.42-1.33-12.57-1.65-2.15-5.71-3.85-12.17-5.11l.4-3.26,93.33,11.48-2.49,25.21-4.46-.55c-.54-7.92-2.15-13.21-4.84-15.85-2.69-2.64-9.19-4.6-19.48-5.86l-23.92-2.94c-2.58-.32-4.22-.1-4.93.66-.71.76-1.2,2.28-1.48,4.56l-4.82,39.2,27.11,3.33c7.49.92,12.4.4,14.73-1.57s4.54-6.26,6.63-12.87l4.12.51-4.99,40.57-4.12-.51c-.48-6.97-1.61-11.68-3.4-14.13-1.79-2.45-6.4-4.14-13.83-5.05l-27.11-3.33-5.35,43.49c-.43,3.49.42,5.68,2.55,6.58,2.13.9,8.69,2.03,19.69,3.38,11.91,1.47,20.86,1.25,26.85-.66,5.99-1.9,11.86-7.58,17.61-17.03l4.89.6-11.63,28.7-94.96-11.68.4-3.26Z"/>
    <path class="cls-45" d="M1177.19,376.81c2.1-.72,4.1-.75,6.01-.1,3.76,1.28,5.76,4.54,5.99,9.79.23,5.25,1.35,8.22,3.37,8.9,2.18.74,4.02.3,5.51-1.32,1.49-1.62,3.04-4.8,4.65-9.55l25.72-75.8c2.11-6.22,2.45-10.54,1.03-12.98-1.43-2.43-5.25-4.88-11.47-7.36l1.05-3.11,48.12,16.33-1.06,3.11c-6.62-1.82-11.23-2.09-13.83-.81-2.59,1.28-4.87,4.81-6.83,10.59l-20.88,61.55c-3.81,11.24-9.34,18.64-16.57,22.21-7.25,3.62-14.86,4.08-22.83,1.38-5.24-1.78-8.91-4.36-11.01-7.75-2.1-3.39-2.66-6.56-1.66-9.51,1.02-3,2.58-4.86,4.68-5.58Z"/>
    <path class="cls-45" d="M1231.99,411.06l1.51-2.92c4.28,1.64,8.09,1.69,11.46.16,3.36-1.54,10.49-6.81,21.4-15.82l72.75-60.1,3.13,1.62-7.09,109.38c-.45,7.25-.26,11.98.57,14.19.83,2.21,2.96,4.52,6.38,6.94l-1.51,2.91-39.95-20.74,1.51-2.92c4.8,1.98,8.02,3.02,9.65,3.12,1.63.1,3.04-.99,4.23-3.28.4-.76.84-2.24,1.33-4.44.49-2.2.83-4.61,1.02-7.22l1.56-18.38-41.4-21.49c-9.42,8.16-15.11,13.17-17.08,15.02-1.97,1.85-3.3,3.44-3.98,4.76-1.37,2.65-1.25,5.04.37,7.17,1.01,1.3,3.27,3.06,6.79,5.27l-1.51,2.91-31.13-16.16ZM1320.59,405.83l4.45-52.61-40.54,33.87,36.09,18.73Z"/>
    <path class="cls-45" d="M1342.11,465c5.73,3.71,9.87,5.3,12.43,4.75,2.55-.54,6.1-3.7,10.64-9.46l47.44-60.22c3.85-4.89,5.64-8.67,5.36-11.34-.28-2.67-2.77-6.19-7.47-10.56l2.03-2.58,38.49,30.32c8.01,6.31,13.89,12.59,17.62,18.83,7.11,11.83,6.61,22.89-1.51,33.2-5.45,6.92-11.88,10.45-19.31,10.61-7.42.16-15.47-2.22-24.13-7.15l.85,57.86c.07,3.55.59,6.51,1.58,8.89.99,2.38,2.76,4.79,5.3,7.23l-2.03,2.58-22.39-17.64-1.03-70.24-6.37-4.47-21.59,27.4c-4.05,5.14-5.84,9.02-5.36,11.62.48,2.61,3.16,6.2,8.06,10.79l-2.03,2.58-38.63-30.43,2.03-2.58ZM1427.61,454.23c9.76,2.78,17.93,0,24.52-8.36,6.33-8.04,7.35-16.13,3.06-24.27-2.29-4.36-6.35-8.84-12.18-13.44-3.94-3.1-6.57-4.72-7.9-4.85s-2.81.84-4.45,2.92l-26.96,34.23c10.29,7.52,18.26,12.11,23.91,13.78Z"/>
    <path class="cls-45" d="M1432.21,535.53c4.75,4.42,8.39,6.83,10.91,7.23,2.52.41,6.28-1.57,11.3-5.94l59.4-51.68c4.87-4.24,7.37-7.68,7.52-10.32.14-2.64-1.77-6.6-5.73-11.85l2.48-2.16,31.31,35.99c10.55,12.13,17.48,24.13,20.78,36,5.99,21.37-.26,40.09-18.73,56.16-6.65,5.79-14.16,9.93-22.52,12.43-8.36,2.5-16.99,2.81-25.89.93-5.63-1.21-10.75-3.1-15.35-5.66-8.46-4.63-17.02-11.92-25.68-21.88l-32.28-37.1,2.48-2.16ZM1459.13,559.37c.23,1.67,1.8,4.18,4.71,7.53,9.08,10.43,18.61,17.22,28.61,20.36,15.35,4.82,30.71.55,46.06-12.81,13.7-11.92,20.31-25.15,19.81-39.69-.44-12.45-5.89-24.7-16.37-36.74-2.61-3-4.71-4.75-6.28-5.25-1.58-.5-3.48.22-5.7,2.15l-67.93,59.1c-2.18,1.89-3.15,3.67-2.92,5.34Z"/>
    <path class="cls-45" d="M1511.67,630.83c4.34,5.77,7.77,9.11,10.3,10.01,2.53.9,6.66-.49,12.39-4.19l66.15-42.7c5.47-3.53,8.41-6.7,8.83-9.51.42-2.81-1.18-7.33-4.8-13.57l2.76-1.78,28.41,44-2.76,1.78c-4.2-5.86-7.66-9.18-10.39-9.96-2.73-.78-6.83.6-12.3,4.13l-66.15,42.7c-5.73,3.7-8.7,6.89-8.92,9.56-.22,2.68,1.41,7.18,4.89,13.51l-2.76,1.78-28.41-44,2.76-1.78Z"/>
    <path class="cls-45" d="M1543.37,675.42c3.73,6.34,7.19,9.92,10.38,10.74,3.19.82,9.03-.72,17.51-4.6l70.89-32.49,1.58-3.39c1.69-3.63,2.49-6.42,2.39-8.37s-.86-4.6-2.26-7.95l2.99-1.37,12.58,27.46-48.52,97.39,53.47-24.51c8.79-4.03,13.92-7.96,15.37-11.8.92-2.52.29-6.85-1.9-13.01l2.99-1.37,17.32,37.79-2.99,1.37c-3.44-5.84-6.8-9.24-10.09-10.2-3.29-.96-9.16.49-17.59,4.35l-84.7,38.82-1.26-2.75,55.61-111.62-62.64,28.71c-8.79,4.03-13.93,7.94-15.43,11.73-.96,2.47-.42,6.75,1.62,12.85l-2.99,1.37-17.32-37.79,2.99-1.37Z"/>
  </g>
</svg>